<?xml version="1.0" encoding="UTF-8"?>
<svg xmlns="http://www.w3.org/2000/svg" version="1.1" width="500" height="500" viewBox="0 0 500 500"><rect x="0" y="0" width="500" height="500" fill="#ffffff"/><g transform="scale(13.514)"><g transform="translate(0,0)"><g><g transform="translate(3.5,3.5)"><path fill-rule="evenodd" d="M-3.5 0C-3.5 -3.5 -3.5 -3.5 0 -3.5M-3.5 0C-3.5 3.5 -3.5 3.5 0 3.5M0 3.5C3.5 3.5 3.5 3.5 3.5 0M3.5 0C3.5 -3.5 3.5 -3.5 0 -3.5M3.5 0A0 0 0 0 1 0 3.5A0 0 0 0 1 -3.5 0A0 0 0 0 1 0 -3.5A0 0 0 0 1 3.5 0ZM-2.5 0C-2.5 -2.5 -2.5 -2.5 0 -2.5M-2.5 0C-2.5 2.5 -2.5 2.5 0 2.5M0 2.5C2.5 2.5 2.5 2.5 2.5 0M2.5 0C2.5 -2.5 2.5 -2.5 0 -2.5M2.5 0A0 0 0 0 1 0 2.5A0 0 0 0 1 -2.5 0A0 0 0 0 1 0 -2.5A0 0 0 0 1 2.5 0Z" fill="#000000"/><path fill-rule="evenodd" d="M-1.5 0C-1.5 -1.5 -1.5 -1.5 0 -1.5M-1.5 0C-1.5 1.5 -1.5 1.5 0 1.5M0 1.5C1.5 1.5 1.5 1.5 1.5 0M1.5 0C1.5 -1.5 1.5 -1.5 0 -1.5M1.5 0A0 0 0 0 1 0 1.5A0 0 0 0 1 -1.5 0A0 0 0 0 1 0 -1.5A0 0 0 0 1 1.5 0Z" fill="#000000"/></g></g><g><g transform="translate(33.5,3.5)"><g transform="rotate(90)"><path fill-rule="evenodd" d="M-3.5 0C-3.5 -3.5 -3.5 -3.5 0 -3.5M-3.5 0C-3.5 3.5 -3.5 3.5 0 3.5M0 3.5C3.5 3.5 3.5 3.5 3.5 0M3.5 0C3.5 -3.5 3.5 -3.5 0 -3.5M3.5 0A0 0 0 0 1 0 3.5A0 0 0 0 1 -3.5 0A0 0 0 0 1 0 -3.5A0 0 0 0 1 3.5 0ZM-2.5 0C-2.5 -2.5 -2.5 -2.5 0 -2.5M-2.5 0C-2.5 2.5 -2.5 2.5 0 2.5M0 2.5C2.5 2.5 2.5 2.5 2.5 0M2.5 0C2.5 -2.5 2.5 -2.5 0 -2.5M2.5 0A0 0 0 0 1 0 2.5A0 0 0 0 1 -2.5 0A0 0 0 0 1 0 -2.5A0 0 0 0 1 2.5 0Z" fill="#000000"/><path fill-rule="evenodd" d="M-1.5 0C-1.5 -1.5 -1.5 -1.5 0 -1.5M-1.5 0C-1.5 1.5 -1.5 1.5 0 1.5M0 1.5C1.5 1.5 1.5 1.5 1.5 0M1.5 0C1.5 -1.5 1.5 -1.5 0 -1.5M1.5 0A0 0 0 0 1 0 1.5A0 0 0 0 1 -1.5 0A0 0 0 0 1 0 -1.5A0 0 0 0 1 1.5 0Z" fill="#000000"/></g></g></g><g><g transform="translate(3.5,33.5)"><g transform="rotate(-90)"><path fill-rule="evenodd" d="M-3.5 0C-3.5 -3.5 -3.5 -3.5 0 -3.5M-3.5 0C-3.5 3.5 -3.5 3.5 0 3.5M0 3.5C3.5 3.5 3.5 3.5 3.5 0M3.5 0C3.5 -3.5 3.5 -3.5 0 -3.5M3.5 0A0 0 0 0 1 0 3.5A0 0 0 0 1 -3.5 0A0 0 0 0 1 0 -3.5A0 0 0 0 1 3.5 0ZM-2.5 0C-2.5 -2.5 -2.5 -2.5 0 -2.5M-2.5 0C-2.5 2.5 -2.5 2.5 0 2.5M0 2.5C2.5 2.5 2.5 2.5 2.5 0M2.5 0C2.5 -2.5 2.5 -2.5 0 -2.5M2.5 0A0 0 0 0 1 0 2.5A0 0 0 0 1 -2.5 0A0 0 0 0 1 0 -2.5A0 0 0 0 1 2.5 0Z" fill="#000000"/><path fill-rule="evenodd" d="M-1.5 0C-1.5 -1.5 -1.5 -1.5 0 -1.5M-1.5 0C-1.5 1.5 -1.5 1.5 0 1.5M0 1.5C1.5 1.5 1.5 1.5 1.5 0M1.5 0C1.5 -1.5 1.5 -1.5 0 -1.5M1.5 0A0 0 0 0 1 0 1.5A0 0 0 0 1 -1.5 0A0 0 0 0 1 0 -1.5A0 0 0 0 1 1.5 0Z" fill="#000000"/></g></g></g><path fill-rule="evenodd" d="M10 0L10 2L11 2L11 0ZM12 0L12 1L13 1L13 2L12 2L12 4L13 4L13 3L14 3L14 4L15 4L15 5L17 5L17 6L16 6L16 9L12 9L12 7L13 7L13 5L11 5L11 6L10 6L10 4L11 4L11 3L8 3L8 4L9 4L9 5L8 5L8 7L9 7L9 8L6 8L6 9L9 9L9 11L10 11L10 12L9 12L9 15L10 15L10 16L11 16L11 17L12 17L12 18L13 18L13 19L12 19L12 21L13 21L13 20L14 20L14 21L15 21L15 23L14 23L14 24L15 24L15 25L12 25L12 23L13 23L13 22L11 22L11 21L10 21L10 20L11 20L11 19L10 19L10 17L9 17L9 18L6 18L6 17L8 17L8 11L7 11L7 10L6 10L6 11L4 11L4 10L2 10L2 9L5 9L5 8L0 8L0 9L1 9L1 10L0 10L0 13L1 13L1 14L3 14L3 16L2 16L2 15L1 15L1 16L0 16L0 19L1 19L1 20L0 20L0 23L1 23L1 24L0 24L0 29L1 29L1 26L2 26L2 29L5 29L5 23L7 23L7 24L6 24L6 25L7 25L7 26L6 26L6 27L7 27L7 26L8 26L8 31L9 31L9 32L8 32L8 37L9 37L9 35L11 35L11 34L9 34L9 33L12 33L12 34L13 34L13 35L12 35L12 37L13 37L13 36L14 36L14 37L16 37L16 36L17 36L17 35L18 35L18 34L16 34L16 33L17 33L17 32L18 32L18 33L19 33L19 34L20 34L20 35L19 35L19 36L20 36L20 37L23 37L23 36L24 36L24 35L25 35L25 36L26 36L26 35L28 35L28 34L29 34L29 36L28 36L28 37L29 37L29 36L31 36L31 37L32 37L32 36L34 36L34 35L35 35L35 37L37 37L37 36L36 36L36 35L37 35L37 33L35 33L35 34L32 34L32 33L34 33L34 32L35 32L35 31L37 31L37 24L35 24L35 22L34 22L34 21L36 21L36 22L37 22L37 20L36 20L36 19L37 19L37 16L36 16L36 15L37 15L37 12L36 12L36 11L37 11L37 9L36 9L36 8L35 8L35 9L36 9L36 11L35 11L35 10L34 10L34 11L33 11L33 10L32 10L32 8L31 8L31 10L30 10L30 8L27 8L27 5L24 5L24 7L23 7L23 5L22 5L22 4L19 4L19 3L21 3L21 2L18 2L18 1L16 1L16 0ZM21 0L21 1L22 1L22 2L23 2L23 3L25 3L25 2L26 2L26 3L27 3L27 4L28 4L28 5L29 5L29 2L28 2L28 0L26 0L26 1L24 1L24 0L23 0L23 1L22 1L22 0ZM8 1L8 2L9 2L9 1ZM14 2L14 3L15 3L15 2ZM16 2L16 4L17 4L17 5L18 5L18 6L17 6L17 8L19 8L19 10L18 10L18 9L16 9L16 10L18 10L18 11L20 11L20 9L22 9L22 8L23 8L23 11L22 11L22 10L21 10L21 13L20 13L20 12L17 12L17 11L16 11L16 13L17 13L17 14L15 14L15 13L14 13L14 12L15 12L15 11L14 11L14 12L13 12L13 13L12 13L12 11L13 11L13 10L12 10L12 9L11 9L11 8L10 8L10 9L11 9L11 14L10 14L10 15L11 15L11 14L13 14L13 15L12 15L12 17L16 17L16 22L18 22L18 23L19 23L19 22L18 22L18 21L17 21L17 20L18 20L18 19L20 19L20 16L18 16L18 17L17 17L17 16L16 16L16 15L17 15L17 14L18 14L18 15L20 15L20 14L21 14L21 15L22 15L22 17L23 17L23 19L24 19L24 20L19 20L19 21L20 21L20 23L22 23L22 25L24 25L24 27L25 27L25 28L23 28L23 29L25 29L25 30L23 30L23 31L22 31L22 30L21 30L21 31L22 31L22 32L21 32L21 33L20 33L20 32L19 32L19 33L20 33L20 34L21 34L21 35L22 35L22 34L21 34L21 33L22 33L22 32L23 32L23 34L26 34L26 33L28 33L28 29L26 29L26 27L25 27L25 26L26 26L26 24L28 24L28 23L24 23L24 24L23 24L23 23L22 23L22 22L21 22L21 21L23 21L23 22L24 22L24 21L25 21L25 22L27 22L27 21L26 21L26 20L28 20L28 21L29 21L29 22L31 22L31 23L29 23L29 25L27 25L27 26L29 26L29 25L30 25L30 26L31 26L31 27L29 27L29 28L33 28L33 27L34 27L34 29L33 29L33 30L36 30L36 29L35 29L35 27L36 27L36 25L34 25L34 23L32 23L32 22L33 22L33 21L34 21L34 19L32 19L32 18L31 18L31 19L30 19L30 18L28 18L28 17L27 17L27 19L24 19L24 18L26 18L26 17L24 17L24 16L23 16L23 15L22 15L22 14L24 14L24 15L25 15L25 14L26 14L26 16L28 16L28 15L27 15L27 14L30 14L30 13L31 13L31 11L32 11L32 12L33 12L33 13L34 13L34 14L33 14L33 15L32 15L32 14L31 14L31 15L29 15L29 16L31 16L31 15L32 15L32 16L33 16L33 15L34 15L34 14L36 14L36 13L34 13L34 12L35 12L35 11L34 11L34 12L33 12L33 11L32 11L32 10L31 10L31 11L29 11L29 10L28 10L28 11L27 11L27 12L26 12L26 11L24 11L24 10L27 10L27 8L26 8L26 6L25 6L25 7L24 7L24 8L23 8L23 7L22 7L22 5L19 5L19 4L18 4L18 3L17 3L17 2ZM27 2L27 3L28 3L28 2ZM9 6L9 7L10 7L10 6ZM11 6L11 7L12 7L12 6ZM14 6L14 8L15 8L15 6ZM18 6L18 7L19 7L19 8L21 8L21 6L20 6L20 7L19 7L19 6ZM28 6L28 7L29 7L29 6ZM24 8L24 9L25 9L25 8ZM33 8L33 9L34 9L34 8ZM1 10L1 11L2 11L2 10ZM6 11L6 12L7 12L7 11ZM23 11L23 12L22 12L22 13L21 13L21 14L22 14L22 13L23 13L23 12L24 12L24 11ZM28 11L28 12L27 12L27 13L26 13L26 12L25 12L25 13L26 13L26 14L27 14L27 13L28 13L28 12L29 12L29 13L30 13L30 12L29 12L29 11ZM3 12L3 13L4 13L4 14L7 14L7 13L4 13L4 12ZM19 13L19 14L20 14L20 13ZM6 15L6 16L7 16L7 15ZM14 15L14 16L15 16L15 15ZM1 17L1 18L2 18L2 17ZM4 17L4 18L5 18L5 19L6 19L6 20L7 20L7 19L6 19L6 18L5 18L5 17ZM34 17L34 18L36 18L36 17ZM17 18L17 19L18 19L18 18ZM21 18L21 19L22 19L22 18ZM2 19L2 20L1 20L1 22L2 22L2 21L4 21L4 19ZM8 19L8 21L6 21L6 22L8 22L8 23L9 23L9 25L10 25L10 26L9 26L9 27L10 27L10 28L11 28L11 30L13 30L13 31L12 31L12 33L15 33L15 32L16 32L16 31L17 31L17 30L18 30L18 31L20 31L20 29L21 29L21 27L22 27L22 26L20 26L20 28L17 28L17 29L16 29L16 31L15 31L15 29L14 29L14 28L16 28L16 27L14 27L14 28L13 28L13 29L12 29L12 27L13 27L13 26L12 26L12 25L11 25L11 24L10 24L10 23L11 23L11 22L10 22L10 23L9 23L9 19ZM14 19L14 20L15 20L15 19ZM28 19L28 20L29 20L29 21L30 21L30 20L29 20L29 19ZM31 19L31 22L32 22L32 21L33 21L33 20L32 20L32 19ZM3 22L3 24L4 24L4 23L5 23L5 22ZM15 23L15 24L16 24L16 26L18 26L18 27L19 27L19 25L21 25L21 24L19 24L19 25L18 25L18 24L16 24L16 23ZM31 23L31 24L30 24L30 25L31 25L31 26L32 26L32 27L33 27L33 24L32 24L32 23ZM1 24L1 25L2 25L2 26L3 26L3 27L4 27L4 26L3 26L3 25L2 25L2 24ZM7 24L7 25L8 25L8 24ZM31 24L31 25L32 25L32 24ZM10 26L10 27L11 27L11 26ZM34 26L34 27L35 27L35 26ZM27 27L27 28L28 28L28 27ZM6 28L6 29L7 29L7 28ZM9 29L9 30L10 30L10 29ZM18 29L18 30L19 30L19 29ZM29 29L29 32L32 32L32 29ZM25 30L25 31L27 31L27 30ZM30 30L30 31L31 31L31 30ZM14 31L14 32L15 32L15 31ZM23 31L23 32L24 32L24 33L25 33L25 32L24 32L24 31ZM33 31L33 32L34 32L34 31ZM30 33L30 35L32 35L32 34L31 34L31 33ZM15 34L15 35L14 35L14 36L16 36L16 34ZM35 34L35 35L36 35L36 34Z" fill="#000000"/></g></g></svg>
